<?xml version="1.0" encoding="UTF-8"?> <svg xmlns="http://www.w3.org/2000/svg" id="Layer_2" data-name="Layer 2" viewBox="0 0 710.44 216.58"><defs><style> .cls-1 { fill: #f4f4f4; } </style></defs><g id="Layer_1-2" data-name="Layer 1"><path class="cls-1" d="m0,202.69c6.54,1.42,13.18,2.26,19.78,3.28,15.29,2.38,30.62,4.43,46.05,5.65,13.28,1.05,26.59,1.39,39.9,1.67,25.67.54,51.3-.15,76.88-2.32,36.55-3.09,72.57-9.09,107.58-20.38,16.61-5.36,32.71-11.93,48.14-20.13.79-.42,1.56-.88,2.52-1.42-1.43-.96-2.96-1.11-4.36-1.56-21.89-7.04-38.9-20.7-52.72-38.73-7.38-9.63-13.65-19.87-17.14-31.6-2.27-7.63-3.33-15.37-1.95-23.32,2.54-14.69,12.7-22.23,26.99-22.83,10.47-.44,19.17,4.16,26.95,10.7,8.78,7.39,15.33,16.5,20.18,26.86.32.69.63,1.39.96,2.09.03.06.1.1.18.18.79-.13.71-.91.93-1.41,3.89-9.22,9.14-17.54,16.28-24.59,1.37-1.36,1.56-2.32.77-4.07-3.64-8.06-6.15-16.43-6.45-25.35-.51-15.26,8.23-27.7,23.08-33.03,12.6-4.52,24.35-2.34,35.32,4.67,14.26,9.11,23.91,22.12,30.84,37.34.3.67.35,1.49,1.2,2.03,1.55-3.92,3.24-7.72,5.27-11.35,5.92-10.6,13.29-19.95,23.42-26.85,10.9-7.42,22.68-9.94,35.58-6.22,11.3,3.25,17.39,11.08,19.57,22.21,2.32,11.87.03,23.31-4.04,34.45-6.45,17.65-16.81,32.95-28.98,47.1-14.05,16.34-30.24,30.21-48.53,41.62-2.17,1.35-2.17,1.39,0,2.87,20.98,14.34,43.06,26.51,67.4,34.22,16.27,5.15,32.85,8.12,50.01,6.96,12.33-.83,24.02-3.95,34.99-9.69,1.42-.74,1.67-1.32.9-2.83-3.24-6.36-4.6-13.26-5.43-20.28-1.09-9.26-1.21-18.51,1.04-27.63,2.13-8.65,6.15-16.26,12.81-22.32,1.93-1.75,4.16-3.07,6.67-3.8,5.38-1.57,10.44.46,13.77,5.36,2.5,3.68,3.62,7.8,3.99,12.17.84,9.81-1.65,18.93-5.7,27.73-4.8,10.42-11.5,19.55-19.2,27.98-2.73,2.99-2.78,3.33,0,6.28,4.9,5.2,10.02,5.82,16.12,2.11,3.2-1.95,5.52-4.88,8.43-7.14.65-.5.02-.89-.27-1.18-2.98-2.97-1.26-7.35,3.26-8.16,1.25-.22,2.48-.3,3.74-.13,5.09.7,7.02,3.33,6.15,8.39-.6,3.52-.24,3.89,3.37,3.55,2.46-.23,4.51-1.34,6.38-2.86.52-.42.91-.81.63-1.57-.27-.72-.16-1.43.67-1.72.99-.34,1.39.39,1.69,1.12,1.37,3.35,2.6,6.76,3.64,10.23.26.86.55,1.7.93,2.85,1.66-3,3.2-5.7,4.64-8.46.26-.5.15-1.22.15-1.84-.02-3.24,1.54-5.72,3.83-7.82.74-.68,1.66-1.03,2.66-1.1,2.35-.15,3.37,1.26,2.48,3.44-.83,2.02-2.25,3.68-3.49,5.44-.82,1.16-.61,1.69.85,1.86,4.37.5,8.24-.84,11.91-3.05.63-.38.71-1.01.89-1.59.89-2.91,2.75-5.12,5-7.06,1.03-.89,2.24-1.47,3.58-1.57,1.46-.11,3.01-.11,3.98,1.28.98,1.41.75,2.93.07,4.38-.88,1.85-2.5,2.96-4.24,3.9-.92.49-1.9.87-2.84,1.31-.96.44-2.28.5-2.14,2.1.13,1.53.82,2.64,2.29,3.19,1.21.45,2.45.42,3.71.21,5.2-.84,9.46-3.53,13.5-6.73.88-.7,1.94-2.42,3.07-1.09,1.23,1.44-.69,2.29-1.58,3-4.29,3.4-8.89,6.25-14.41,7.25-5.2.94-7.89-.32-10.27-5.05-.56-1.12-1.13-.45-1.67-.21-2.17,1-4.4,1.75-6.77,2.07-1.88.26-3.79.26-5.59-.38-1.39-.49-2.03,0-2.59,1.19-1.15,2.46-2.38,4.89-3.58,7.33-.59,1.21-1.22,2.49-2.82,2.42-1.68-.07-2.31-1.41-2.75-2.77-.97-2.98-1.92-5.97-2.79-8.98-.42-1.45-.79-1.98-2.31-.87-2.99,2.17-6.37,3.13-10.07,2.19-1.46-.37-2.41.2-3.17,1.35-1.2,1.79-2.84,3.06-4.8,3.9-3.53,1.5-5.78.03-5.84-3.78,0-.42,0-.83,0-1.38-1.19.28-1.86,1.21-2.68,1.88-1.84,1.5-3.74,2.92-5.84,4.03-6.82,3.61-14.25,1.94-18.69-4.36-1.01-1.43-1.73-1.44-3.15-.7-16.3,8.54-33.76,11.03-51.91,9.65-23.51-1.79-45.31-9.42-66.31-19.69-13.74-6.72-26.78-14.63-39.28-23.41-1.27-.89-2.16-.95-3.51-.18-15.85,9.05-32.59,15.78-50.62,18.99-12.8,2.29-25.64,2.51-38.48.23-1.16-.21-2.11-.09-3.16.49-30.64,17.01-63.62,27.38-97.8,34.31-38.25,7.75-76.96,10.88-115.93,11.28-21.27.22-42.52-.13-63.73-1.67-18.5-1.35-36.84-4.05-55.15-6.93-4.26-.67-8.48-1.6-12.8-1.88v-3.35ZM522.87,32.51c.05-3.79-.31-7.53-1.32-11.18-2.13-7.7-6.36-13.53-14.35-16.05-11.33-3.58-21.98-1.88-31.8,4.47-15.71,10.17-25.31,24.96-31.17,42.43-.32.95-.25,2.3-1.67,2.3-1.43,0-2.19-.98-2.58-2.32-2.58-8.87-6.88-16.89-12.33-24.29-6.87-9.32-15.01-17.12-25.78-21.97-20.17-9.08-50.32,5.81-46.48,34.25.88,6.55,2.72,12.78,5.15,18.89.63,1.58,1.12,1.61,2.43.61,7.19-5.47,15.18-8.82,24.38-8.41,8.9.39,16.89,3.04,22.55,10.42,4.85,6.31,6.4,13.68,6.17,21.46-.35,12.02-4.56,22.86-10.51,33.11-.73,1.26-.73,1.94.37,2.97,9.82,9.21,20.15,17.8,30.93,25.86,1.38,1.03,2.27.93,3.64.08,16.73-10.42,31.75-22.87,45.03-37.43,11.43-12.52,21.29-26.13,28.61-41.48,5.08-10.66,8.55-21.77,8.73-33.71Zm-255.1,49.2c.07,6.35,1.2,12.2,3.13,17.92,4.31,12.76,11.74,23.66,20.37,33.79,13.88,16.29,30.79,27.87,51.84,32.92,1.33.32,2.37.18,3.53-.51,8.65-5.12,16.94-10.74,24.73-17.09,10.59-8.63,20.01-18.35,27.67-29.71.8-1.19.99-1.93-.21-2.95-1.33-1.12-2.47-2.45-3.68-3.7-12.94-13.36-24.74-27.59-33.58-44.07-.76-1.42-1.24-1.2-2.17-.19-7.8,8.48-13.68,18.07-17.02,29.16-.54,1.78-1.71,2.17-3.06,1.06-.63-.52-.84-1.24-1.07-1.98-3.26-10.42-8.79-19.53-16.16-27.52-6.1-6.61-13.11-11.86-22.07-14.01-10.2-2.45-21.83,1.52-27.26,9.35-3.72,5.36-4.92,11.44-4.99,17.53Zm144.61.8c.04-5.22-.43-9.08-1.71-12.81-2.22-6.46-6.18-11.29-12.87-13.55-12.83-4.34-23.76-.45-33.76,7.68-1.18.96-.48,1.67-.05,2.49,5.03,9.76,11.26,18.71,18.15,27.23,5.65,6.99,11.71,13.62,18.04,19.99.54.55,1.12,1.96,2.11.23,5.76-10.12,9.83-20.74,10.08-31.27Zm-61.28,85.28c6.28,1.02,12.11,1.22,17.94.99,23.67-.91,45.2-8.81,65.65-20.21,1.4-.78.81-1.23-.04-1.85-10.68-7.84-20.8-16.36-30.45-25.43-.99-.93-1.34-.68-1.99.28-10.62,15.68-24.35,28.18-39.87,38.83-3.55,2.44-7.2,4.73-11.24,7.38Zm243.95-20.03c.02,9.52,1.61,18.94,5.16,28,1.07,2.72,1.44,2.82,3.4.77,4.54-4.74,8.51-9.95,12.08-15.44,6.29-9.67,11.21-19.91,12.27-31.61.61-6.68-.2-13.11-4.31-18.7-3.14-4.28-7.92-5.25-12.56-2.66-3.44,1.92-5.93,4.82-7.94,8.12-5.86,9.62-8.16,20.17-8.1,31.51Zm40.22,24.7c-1.28-.01-2.5.23-3.58.92-1.28.81-1.5,2.19-.35,2.91,1.95,1.23,3.5,3.08,5.76,3.82.45.15.97.38,1.29-.19.92-1.66,1.15-3.39.48-5.2-.62-1.68-1.95-2.22-3.6-2.25Zm-4.11,12.99c.05.68.11,1.56,1.26,1.6,1.11.03,4.48-3.09,4.17-3.97-.48-1.39-1.93-1.69-3.17-2-.94-.24-2.24,2.3-2.26,4.38Zm57.48-8.54c2.57-.96,4.4-2,5.66-3.82.4-.58,1.04-1.35.37-2.04-.71-.74-1.45-.04-2,.4-1.67,1.34-2.9,3.03-4.04,5.47Z"></path></g></svg> 